<?xml version="1.0" standalone="no"?>
<!DOCTYPE svg PUBLIC "-//W3C//DTD SVG 20010904//EN"
 "http://www.w3.org/TR/2001/REC-SVG-20010904/DTD/svg10.dtd">
<svg version="1.0" xmlns="http://www.w3.org/2000/svg"
 width="920.000000pt" height="700.000000pt" viewBox="0 0 920.000000 700.000000"
 preserveAspectRatio="xMidYMid meet">

<g transform="translate(0.000000,700.000000) scale(0.100000,-0.100000)"
fill="#000000" stroke="none">
<path d="M4973 5843 c-43 -25 -106 -103 -152 -193 -22 -41 -54 -88 -72 -105
-39 -37 -68 -99 -69 -145 0 -48 -8 -56 -60 -69 -103 -27 -129 -50 -152 -135
-11 -40 -20 -52 -56 -73 -30 -18 -50 -40 -67 -74 -26 -50 -49 -69 -85 -69 -32
0 -87 -60 -95 -103 -7 -34 -10 -37 -41 -37 -33 0 -74 -28 -74 -50 0 -5 -23
-10 -50 -10 -58 0 -90 -24 -115 -84 -12 -28 -21 -35 -55 -41 -54 -9 -99 -41
-130 -95 -22 -36 -32 -45 -56 -46 -16 0 -39 -1 -51 -2 -12 -1 -48 -26 -80 -55
-41 -37 -77 -60 -123 -77 -145 -52 -230 -114 -334 -243 -24 -30 -55 -56 -82
-67 -47 -20 -80 -53 -104 -103 -11 -22 -46 -49 -130 -99 -63 -38 -137 -91
-165 -117 -58 -56 -73 -62 -257 -101 -182 -39 -338 -63 -663 -100 -383 -43
-497 -62 -529 -88 -97 -76 -166 -233 -196 -448 -6 -44 -15 -81 -21 -83 -24 -8
-49 -47 -58 -92 -21 -94 -34 -376 -20 -431 25 -107 137 -182 329 -223 135 -28
480 -65 805 -85 211 -13 1552 -13 2170 0 253 5 906 16 1450 24 545 8 1087 18
1205 21 792 21 1182 38 1286 56 84 15 158 59 195 117 l31 47 -7 155 c-10 250
-35 621 -46 669 -5 24 -14 52 -20 63 -8 15 -7 22 5 31 27 21 36 66 36 186 0
125 -33 578 -50 690 -38 246 -119 566 -217 862 -41 125 -83 240 -94 258 -16
27 -24 31 -63 31 -64 0 -145 -34 -183 -76 -18 -20 -73 -116 -122 -213 -94
-186 -140 -249 -218 -300 -126 -84 -494 -141 -715 -112 -247 33 -471 160 -773
438 -71 66 -152 146 -179 177 l-49 58 2 72 c5 177 -109 326 -334 436 -142 69
-241 87 -302 53z m310 -84 c128 -66 221 -153 268 -252 30 -66 46 -163 31 -186
-13 -18 -32 -5 -32 21 0 14 -5 18 -15 14 -10 -4 -17 3 -21 22 -17 78 -30 100
-98 167 -42 41 -108 91 -161 122 -120 70 -127 75 -92 68 15 -3 27 -1 27 5 0 5
-6 10 -12 10 -20 1 24 30 44 30 10 0 38 -10 61 -21z m-110 -75 c83 -42 178
-107 227 -155 69 -66 123 -191 57 -132 -58 53 -170 83 -317 83 -63 0 -109 5
-137 16 l-43 17 22 31 c33 47 128 166 134 166 2 0 28 -12 57 -26z m-228 -5
c24 0 17 -4 -30 -18 -33 -10 -61 -17 -63 -15 -2 1 2 12 8 24 8 16 18 20 33 16
12 -3 36 -6 52 -7z m387 -249 c91 -28 159 -81 378 -295 270 -264 416 -376 605
-466 119 -56 197 -76 340 -89 213 -19 551 37 669 109 18 11 59 49 93 84 49 51
75 92 138 218 42 84 92 176 111 202 37 51 91 81 164 93 45 7 63 -11 19 -20
-46 -9 -89 -62 -132 -161 -50 -116 -163 -308 -220 -371 -55 -60 -177 -137
-261 -163 -177 -54 -452 -71 -636 -37 -169 31 -357 102 -470 179 -146 100
-471 371 -651 543 -146 141 -204 174 -312 182 -37 3 -70 9 -74 15 -10 17 165
0 239 -23z m-80 -36 c55 -18 114 -58 185 -127 l52 -51 -72 -18 c-40 -10 -112
-38 -161 -63 -52 -26 -82 -37 -73 -27 26 28 20 35 -13 15 -30 -17 -39 -33 -20
-33 11 0 -105 -112 -141 -138 -16 -11 -18 -11 -13 3 8 19 -5 19 -34 -1 -12 -8
-21 -23 -20 -31 2 -9 -3 -18 -10 -20 -8 -3 -10 1 -5 13 3 9 2 15 -3 13 -48
-23 -64 -34 -60 -45 3 -7 -1 -15 -9 -18 -9 -3 -12 0 -8 10 7 18 -1 18 -37 -1
-17 -9 -30 -23 -30 -33 0 -13 -2 -14 -9 -4 -12 19 -62 4 -69 -20 -3 -12 -7
-15 -12 -9 -4 8 -15 8 -38 0 -32 -11 -41 -24 -22 -31 6 -2 0 -9 -12 -17 -21
-13 -22 -13 -9 2 16 20 3 22 -33 6 -27 -13 -43 -39 -23 -39 6 0 -19 -28 -58
-62 -38 -35 -73 -62 -78 -60 -11 3 -57 -37 -57 -51 0 -5 7 -7 15 -3 13 5 13 2
-1 -19 -21 -32 -121 -98 -181 -121 -141 -51 -185 -71 -258 -119 -44 -28 -109
-77 -144 -107 -77 -68 -203 -135 -425 -227 -98 -40 -207 -95 -267 -132 -117
-74 -331 -172 -340 -157 -4 6 -18 6 -41 0 -25 -7 -44 -6 -68 4 -41 18 -43 17
-36 -1 8 -21 3 -19 -25 12 -13 15 -16 21 -6 14 22 -18 34 -7 16 15 -16 20 -5
30 109 101 49 30 77 43 80 35 2 -7 10 -12 18 -12 11 0 12 4 5 19 -8 14 -7 20
4 25 27 10 41 -4 56 -52 12 -39 18 -48 41 -50 31 -4 53 23 69 83 14 54 49 123
77 153 12 14 22 32 22 40 0 11 7 13 28 7 83 -20 90 -19 132 23 31 30 40 47 40
73 0 38 20 55 116 103 62 31 64 31 64 9 0 -30 37 -80 63 -87 34 -8 72 7 92 37
8 13 22 57 31 98 8 40 20 79 26 86 6 8 8 16 5 20 -4 3 -2 12 4 19 6 8 9 20 6
27 -3 8 3 13 14 13 23 0 24 -4 2 -28 -21 -23 -9 -36 14 -15 16 13 20 14 37 1
27 -20 100 -18 117 3 8 9 16 43 19 77 l5 60 55 16 c41 12 55 21 55 35 0 10 6
20 13 23 7 2 10 -2 6 -12 -8 -20 4 -20 27 0 15 14 18 11 39 -31 12 -25 33 -53
45 -61 34 -22 77 -14 92 16 18 35 16 132 -2 156 -8 10 -15 25 -15 32 0 7 29
42 65 78 l66 65 25 -31 c21 -24 34 -30 64 -30 63 0 74 19 66 116 -5 68 -3 83
9 88 8 3 15 10 15 17 0 6 -7 8 -16 5 -14 -5 -15 -4 -4 9 7 8 9 15 4 15 -12 0
19 20 31 20 6 0 4 -4 -3 -8 -7 -5 -10 -16 -6 -25 6 -18 26 -21 58 -8 15 6 30
-3 66 -41 42 -43 51 -48 91 -48 32 0 52 6 67 20 33 31 28 66 -18 116 -22 24
-40 50 -40 58 0 8 27 37 60 66 l60 52 53 -22 c33 -15 80 -25 127 -28 67 -4 77
-2 94 17 24 27 25 90 3 125 -9 13 -13 26 -10 29 7 8 55 -1 115 -19z m-470 -62
c14 -6 10 -12 -21 -39 -38 -32 -39 -32 -45 -10 -12 45 -7 57 22 56 15 0 35 -3
44 -7z m27 -60 c-67 -58 -79 -66 -79 -49 0 18 99 99 112 91 5 -3 -10 -22 -33
-42z m3096 -50 c4 -9 28 -78 55 -152 42 -121 47 -142 42 -201 -4 -64 -3 -66
28 -92 40 -34 58 -97 65 -229 6 -106 17 -148 39 -148 13 0 36 -74 36 -117 0
-15 -2 -15 -18 0 -10 10 -24 17 -30 17 -7 0 -12 7 -12 15 0 8 -9 19 -19 25
-11 5 -26 16 -33 23 -56 57 -171 102 -297 117 -112 14 -135 18 -165 30 -16 6
-27 6 -31 0 -4 -6 0 -12 7 -15 37 -12 100 -24 163 -30 82 -8 160 -27 204 -49
17 -9 31 -14 31 -12 0 3 12 -6 26 -19 15 -14 31 -25 35 -25 5 0 36 -27 70 -61
43 -43 64 -57 69 -49 5 9 8 5 8 -11 0 -13 4 -37 8 -54 6 -26 0 -21 -48 35
-124 147 -222 196 -440 224 -126 16 -186 37 -285 99 -66 40 -81 63 -38 55 18
-4 25 -1 25 11 0 9 16 25 36 36 75 40 179 189 285 409 38 78 79 151 91 163 38
35 80 37 93 5z m-3361 -31 l25 -49 -27 -5 c-15 -3 -35 -9 -44 -12 -16 -6 -17
-3 -12 26 6 36 24 89 30 89 2 0 15 -22 28 -49z m-315 -278 c-18 -21 -35 -40
-36 -42 -2 -2 -3 0 -3 5 0 21 41 74 57 74 13 0 9 -9 -18 -37z m88 -9 c-15 -13
-27 -27 -27 -31 0 -5 -10 -13 -22 -18 -13 -6 -27 -20 -33 -32 -5 -13 -15 -25
-22 -27 -16 -6 -17 10 -3 19 6 4 8 15 5 25 -3 10 -1 21 4 25 7 3 8 0 5 -9 -12
-30 11 -16 54 34 24 28 48 47 54 44 7 -5 1 -16 -15 -30z m-42 7 c-3 -6 -11
-11 -17 -11 -6 0 -6 6 2 15 14 17 26 13 15 -4z m808 -201 c112 -190 205 -306
321 -399 81 -64 218 -192 213 -198 -3 -2 -62 -15 -133 -30 -95 -19 -163 -26
-259 -27 -163 -1 -225 15 -289 77 -64 61 -81 125 -72 276 3 64 9 134 12 155 6
39 6 39 -22 32 -51 -13 -171 -75 -262 -135 -100 -68 -236 -203 -281 -282 -118
-204 -85 -426 79 -542 99 -69 243 -93 462 -76 235 17 453 60 842 166 l209 57
24 -30 c72 -89 255 -436 278 -526 9 -35 18 -34 -310 -53 -277 -16 -765 -73
-980 -115 -27 -5 -70 -12 -95 -15 -25 -4 -83 -13 -129 -21 -87 -15 -100 -11
-101 23 0 7 -18 50 -40 95 -96 202 -353 476 -623 667 -100 71 -156 137 -186
216 -12 31 -21 59 -21 64 0 14 177 154 253 200 39 24 118 61 174 81 136 50
182 81 293 202 111 119 195 177 341 237 57 23 124 53 149 66 l45 23 29 -52
c16 -28 51 -89 79 -136z m2966 85 c0 -5 -6 1 -14 15 -8 14 -14 34 -14 45 0 13
5 8 14 -15 7 -19 14 -39 14 -45z m-3999 -45 c0 -5 -17 -21 -37 -34 -42 -28
-113 -59 -113 -51 0 16 33 66 52 79 25 18 98 22 98 6z m-15 -60 c-10 -11 -23
-20 -29 -20 -6 0 0 9 14 20 32 25 38 25 15 0z m-89 -72 c-6 -4 -18 -7 -26 -7
-10 0 -11 2 -2 6 6 2 12 11 12 19 0 12 2 12 14 2 10 -9 11 -15 2 -20z m2679
-117 c3 -5 -4 -12 -15 -16 -11 -3 -20 -10 -20 -15 0 -4 -8 -10 -17 -14 -10 -3
-35 -17 -55 -31 -21 -14 -38 -22 -38 -18 1 14 37 51 75 77 40 27 60 32 70 17z
m231 -18 c-10 -11 -37 -12 -30 -2 3 5 12 9 21 9 9 0 13 -3 9 -7z m14 -23 c0
-5 -7 -10 -16 -10 -8 0 -12 5 -9 10 3 6 10 10 16 10 5 0 9 -4 9 -10z m42 -21
c5 -3 1 -9 -10 -11 -15 -4 -19 -1 -17 11 2 9 4 21 5 26 1 6 4 3 7 -5 3 -8 10
-18 15 -21z m1225 -11 c-3 -7 -5 -2 -5 12 0 14 2 19 5 13 2 -7 2 -19 0 -25z
m-1399 -39 c15 -23 19 -21 -103 -49 -49 -11 -98 -23 -107 -26 -27 -8 -22 21
10 57 31 34 70 46 140 41 34 -3 52 -9 60 -23z m252 -3 c0 -3 -4 -8 -10 -11 -5
-3 -10 -1 -10 4 0 6 5 11 10 11 6 0 10 -2 10 -4z m10 -46 c0 -21 -15 -27 -25
-10 -7 12 2 30 16 30 5 0 9 -9 9 -20z m-3606 -22 c-5 -8 2 -9 27 -5 34 6 34 6
9 -8 -14 -8 -44 -24 -67 -36 -24 -11 -43 -25 -43 -30 0 -5 -7 -9 -17 -9 -15 0
-15 2 1 19 13 15 14 20 4 25 -7 3 -1 3 13 0 17 -3 33 2 50 15 17 14 19 20 9
21 -13 0 -13 1 0 10 20 13 23 12 14 -2z m3281 -7 c-9 -7 -57 -21 -127 -35 -14
-3 -34 -9 -45 -12 -15 -6 -16 -5 -5 7 7 7 43 21 80 30 77 19 110 23 97 10z
m-9 -78 c12 -60 27 -64 43 -11 15 48 25 58 61 57 24 0 24 -1 -13 -32 -20 -18
-37 -39 -37 -47 1 -11 4 -10 15 4 12 16 18 17 27 8 9 -9 8 -12 -5 -12 -9 0
-17 -4 -17 -10 0 -15 37 -12 70 5 21 11 30 23 30 40 0 14 6 25 13 26 6 0 24 2
40 3 15 1 27 2 27 1 -1 0 -6 -20 -13 -45 -19 -70 -34 -83 -117 -104 -41 -11
-79 -22 -85 -25 -5 -3 -14 -6 -20 -7 -5 -1 -33 -9 -62 -17 -28 -8 -53 -13 -56
-11 -2 2 -10 -2 -17 -11 -7 -9 -11 -18 -8 -20 3 -4 87 20 148 43 8 3 29 7 45
9 27 3 28 2 10 -8 -10 -7 -60 -25 -110 -41 -101 -31 -101 -31 -125 42 -13 41
-13 42 16 65 29 25 74 33 74 15 0 -5 -5 -10 -10 -10 -14 0 -60 -46 -60 -60 0
-21 37 -9 67 24 24 25 29 36 20 45 -8 8 -6 11 7 11 15 0 16 3 6 15 -7 8 -18
15 -25 15 -7 0 -15 10 -18 21 -5 18 -11 20 -34 14 -15 -3 -36 -14 -46 -23 -18
-16 -19 -15 -15 12 3 25 9 30 53 41 28 7 61 15 75 18 14 2 28 5 31 6 4 0 11
-20 15 -46z m379 -12 c3 -5 1 -12 -5 -16 -5 -3 -10 1 -10 9 0 18 6 21 15 7z
m-568 -63 c-3 -8 -6 -5 -6 6 -1 11 2 17 5 13 3 -3 4 -12 1 -19z m-3377 -33 c0
-8 -4 -15 -10 -15 -5 0 -7 7 -4 15 4 8 8 15 10 15 2 0 4 -7 4 -15z m3770 -14
c0 -13 -60 -32 -73 -24 -6 4 7 12 29 19 21 6 40 12 42 13 1 1 2 -3 2 -8z m3
-56 c1 -5 -13 -11 -30 -13 -34 -3 -46 13 -15 21 24 7 43 4 45 -8z m-153 -35
c0 -5 -5 -10 -11 -10 -5 0 -7 5 -4 10 3 6 8 10 11 10 2 0 4 -4 4 -10z m-36
-29 c16 -17 16 -22 3 -48 -17 -32 -11 -51 30 -92 12 -13 23 -27 23 -31 0 -9
-26 -7 -36 3 -4 3 -11 4 -15 1 -12 -7 16 -34 35 -34 9 0 16 -5 16 -11 0 -6 -7
-8 -15 -5 -8 3 -21 8 -28 11 -10 5 -14 -6 -14 -42 0 -32 1 -37 4 -15 4 29 23
47 23 21 0 -5 5 -7 10 -4 6 3 10 2 10 -4 0 -5 13 -12 29 -16 16 -3 34 -12 40
-19 6 -7 29 -21 51 -31 22 -10 40 -22 40 -28 0 -5 7 -7 15 -4 8 4 17 1 21 -5
9 -14 -52 -3 -152 28 -43 13 -82 24 -85 24 -11 0 5 -56 51 -180 23 -63 44
-127 47 -142 6 -32 36 -42 73 -23 31 16 121 111 147 156 9 16 21 29 26 29 4 0
4 -6 0 -13 -75 -123 -156 -207 -199 -207 -20 0 -25 -4 -20 -16 3 -9 6 -20 6
-25 0 -5 19 -12 43 -16 37 -6 39 -7 17 -14 -14 -4 -52 -7 -84 -8 l-60 -1 32
33 c32 33 40 52 23 59 -11 4 -76 167 -95 238 -8 30 -19 68 -26 85 -7 18 -9 52
-4 92 l6 62 -61 87 -61 88 53 17 c28 9 55 17 58 18 3 1 14 -8 23 -18z m131 2
c-11 -3 -30 -14 -42 -25 -12 -11 -27 -18 -34 -16 -17 6 52 48 76 47 l20 -1
-20 -5z m224 -19 c-15 -18 -22 -13 -13 10 3 9 10 13 16 10 5 -3 4 -12 -3 -20z
m-772 0 c7 -18 -17 -38 -31 -24 -11 11 -1 40 14 40 6 0 13 -7 17 -16z m566
-54 c-45 -47 -75 -61 -87 -41 -7 10 102 91 122 91 7 0 -9 -22 -35 -50z m-368
-7 c-7 -21 -18 -87 -24 -146 -11 -111 -5 -147 23 -147 15 0 127 114 145 148
13 25 41 30 41 7 0 -21 -37 -83 -79 -133 -20 -24 -45 -57 -57 -73 -11 -16 -23
-27 -25 -25 -2 3 -3 -12 -1 -32 9 -92 -55 -256 -104 -268 -14 -4 -27 -4 -29
-2 -9 9 -22 97 -16 104 10 10 7 84 -4 84 -5 0 -4 4 4 9 8 5 11 16 8 25 -4 9
-1 29 5 44 12 31 12 72 -1 85 -5 5 -12 -4 -16 -22 -5 -25 -9 -29 -19 -18 -25
24 -27 53 -6 98 11 24 20 54 20 65 0 12 6 26 13 32 10 9 12 -1 7 -46 -3 -31
-4 -65 -2 -75 5 -22 22 -12 22 14 0 10 5 19 10 19 7 0 7 6 0 19 -7 13 -7 22 0
26 5 3 10 -2 11 -12 0 -10 4 -5 10 11 9 33 3 48 -11 26 -7 -11 -10 -8 -10 13
0 41 23 107 37 107 17 0 17 17 1 23 -10 4 -10 8 1 15 9 7 10 12 2 16 -18 11
-13 26 12 36 41 16 46 13 32 -27z m-200 7 c-3 -5 -14 -10 -23 -10 -15 0 -15 2
-2 10 20 13 33 13 25 0z m1108 -10 c3 -11 2 -20 -3 -20 -8 0 2 -59 13 -77 3
-5 9 -66 12 -136 6 -116 5 -127 -11 -127 -10 0 -15 3 -11 6 3 3 -6 16 -20 28
l-26 22 15 65 c10 44 12 83 7 124 -12 97 -11 135 5 135 7 0 16 -9 19 -20z
m-184 -34 c7 -9 9 -21 5 -28 -14 -22 -13 -68 1 -68 17 0 27 -31 19 -56 -4 -14
-3 -15 4 -6 7 10 11 5 16 -19 3 -18 4 -34 1 -37 -3 -3 -5 3 -5 13 0 14 -3 15
-15 5 -11 -9 -12 -17 -4 -31 5 -11 15 -16 21 -13 8 5 9 -4 5 -29 -3 -20 -2
-39 4 -42 5 -4 6 2 2 11 -4 11 -3 15 5 10 6 -3 13 -32 17 -64 4 -31 10 -69 15
-83 5 -16 4 -31 -2 -37 -6 -6 -5 -21 4 -43 8 -19 13 -41 13 -49 -1 -8 3 -23 7
-32 8 -16 2 -18 -52 -18 -40 0 -62 4 -64 13 -36 124 -52 202 -39 194 4 -3 9
13 10 34 2 36 1 38 -17 27 -11 -7 -20 -19 -20 -26 0 -15 -52 -11 -57 5 -5 14
6 21 41 27 35 6 46 16 19 16 -12 0 -23 6 -25 12 -3 9 -12 8 -31 -5 -19 -12
-25 -13 -21 -4 3 8 -11 33 -31 57 -49 58 -59 80 -46 93 15 15 44 -12 37 -36
-3 -13 0 -17 10 -13 17 7 19 -20 2 -28 -7 -4 -2 -4 11 -2 14 3 31 0 38 -5 9
-8 20 5 43 56 17 38 29 74 26 82 -3 8 -1 11 4 8 17 -11 11 -40 -21 -99 -29
-53 -30 -58 -15 -75 9 -10 13 -21 9 -25 -4 -4 0 -4 10 0 9 3 17 10 17 15 0 5
9 9 20 9 11 0 20 -4 20 -10 0 -5 -8 -10 -17 -10 -14 0 -14 -3 -5 -12 20 -20
34 10 28 62 -11 103 -27 187 -42 222 -28 63 2 86 45 34z m-905 -164 c14 -28
14 -32 -12 -71 -24 -37 -28 -40 -39 -24 -9 11 -13 57 -13 139 0 109 2 123 18
126 14 3 18 -7 24 -69 4 -40 14 -85 22 -101z m-3084 61 c44 -144 22 -254 -67
-333 -107 -94 -193 -105 -798 -96 -443 6 -657 17 -840 46 -100 15 -326 62
-321 67 2 2 14 6 27 8 134 22 266 39 494 65 373 42 645 88 801 136 l51 16 43
-31 c69 -50 116 -45 286 31 76 34 172 83 213 110 40 26 77 48 82 48 4 0 18
-30 29 -67z m4090 -119 c0 -8 10 -36 23 -62 13 -26 22 -56 19 -67 -14 -67 -48
-17 -55 83 -4 44 -2 70 4 67 5 -4 9 -13 9 -21z m-4582 -11 c-10 -2 -26 -2 -35
0 -10 3 -2 5 17 5 19 0 27 -2 18 -5z m670 -350 c2 -12 12 -23 23 -26 26 -7 24
-25 -5 -39 -17 -7 -26 -20 -28 -42 -2 -20 -11 -34 -26 -42 -37 -18 -35 -22 10
-17 33 4 48 0 66 -15 27 -24 28 -48 2 -55 -20 -5 -26 -30 -14 -60 7 -18 50
-11 84 15 14 10 44 22 67 26 l42 7 -40 59 c-22 33 -39 69 -37 80 2 13 22 29
60 48 l57 28 70 -30 c98 -42 169 -42 214 0 26 24 41 30 78 30 29 0 51 -6 59
-15 16 -19 68 -19 115 1 42 17 61 8 51 -24 -4 -12 -28 -29 -59 -41 -97 -41
-96 -40 -57 -40 19 -1 57 6 84 14 27 8 60 15 72 15 20 0 22 -3 15 -22 -4 -13
-19 -29 -32 -35 -13 -7 -23 -17 -22 -23 3 -10 -116 -80 -135 -80 -7 0 -12 13
-12 28 0 26 5 29 73 51 114 36 169 88 58 55 -56 -16 -142 -16 -148 1 -2 6 21
19 50 29 57 19 106 51 95 61 -3 4 -16 2 -27 -4 -33 -18 -122 -16 -136 3 -21
29 -77 20 -113 -17 l-32 -33 -83 7 c-58 4 -97 14 -131 31 l-49 25 -53 -29
c-30 -16 -54 -33 -54 -36 0 -4 16 -31 35 -60 20 -28 40 -64 45 -78 10 -26 10
-27 -24 -21 -33 5 -83 -12 -97 -34 -3 -5 -26 -11 -50 -12 l-44 -2 -3 48 c-3
42 -1 47 17 47 25 0 26 6 4 28 -12 12 -38 18 -87 20 -146 6 -186 2 -186 -22 0
-23 27 -38 70 -39 47 -2 53 -15 48 -87 -3 -42 -5 -45 -40 -53 -36 -9 -57 -35
-43 -57 3 -5 1 -10 -5 -10 -7 0 -10 13 -8 32 3 27 9 33 46 46 39 13 42 16 42
50 0 49 -8 58 -55 66 -49 9 -65 22 -65 51 0 27 34 42 97 41 24 -1 43 2 43 7 0
4 -9 7 -20 7 -11 0 -23 8 -26 18 -3 9 -13 31 -22 48 -8 17 -12 39 -8 49 5 15
14 17 56 11 41 -6 51 -4 57 9 6 17 41 36 58 31 6 -1 11 -12 13 -23z m-2018
-45 c5 -13 12 -44 15 -69 6 -46 6 -46 52 -53 25 -3 68 -6 94 -6 40 0 49 -3 49
-18 0 -14 -15 -20 -82 -31 -97 -15 -98 -15 -98 -45 0 -24 0 -24 65 11 66 35
95 37 95 8 0 -12 4 -14 19 -5 15 7 21 23 23 58 3 45 5 48 53 74 78 43 85 40
85 -36 0 -36 3 -67 8 -69 4 -3 7 22 7 55 0 61 0 61 40 84 22 13 52 23 66 24
23 0 27 -5 38 -62 7 -35 18 -90 25 -123 l13 -60 6 41 c4 23 4 62 1 87 -7 45
-6 46 32 62 22 9 52 18 68 18 26 2 31 -3 40 -35 l11 -36 50 19 c75 28 81 26
95 -31 7 -28 16 -52 20 -55 4 -3 17 12 27 33 14 27 34 44 73 64 63 32 182 63
204 55 9 -4 18 -24 22 -46 4 -27 12 -41 26 -44 16 -5 18 -12 13 -54 -9 -73
-10 -175 -1 -200 6 -15 4 -23 -3 -23 -6 0 -10 3 -9 8 0 4 -2 15 -7 25 -4 10
-4 63 1 118 5 55 6 105 2 112 -4 7 -35 1 -100 -21 -51 -18 -96 -32 -100 -32
-14 0 -8 28 11 51 16 19 22 22 32 12 18 -18 52 -16 93 4 31 14 34 19 29 47 -3
17 -8 33 -10 35 -7 9 -149 -32 -195 -57 -97 -51 -110 -137 -33 -212 33 -32 41
-35 95 -34 l60 1 -1 -31 c-2 -29 -2 -30 -6 -4 -4 24 -7 26 -32 17 -34 -12
-105 11 -130 42 l-17 21 -53 -36 c-60 -41 -90 -46 -98 -16 -4 14 -9 17 -17 11
-21 -17 -119 -41 -168 -41 -26 0 -48 -4 -48 -10 0 -5 -7 -10 -15 -10 -11 0 -9
8 8 34 20 29 23 31 29 14 7 -16 15 -18 60 -13 29 3 74 17 100 31 55 28 58 28
58 12 0 -7 4 -19 9 -27 7 -12 15 -10 42 7 64 39 79 58 69 91 -4 16 -17 42 -28
58 -11 15 -23 45 -27 66 -3 20 -10 37 -15 37 -17 0 -100 -40 -100 -48 0 -5 9
-34 19 -65 l20 -57 -41 -10 c-22 -6 -42 -9 -44 -7 -3 2 0 35 6 73 11 68 6 139
-10 149 -5 3 -30 -3 -56 -14 l-48 -18 -1 -84 c-1 -46 -6 -97 -10 -114 -7 -25
-12 -12 -36 95 -15 69 -28 135 -28 148 -1 29 -24 28 -76 -2 l-40 -23 2 -62 c3
-55 1 -62 -15 -59 -14 3 -18 16 -20 71 -2 37 -5 67 -8 67 -2 0 -29 -14 -60
-32 -55 -31 -56 -32 -51 -69 4 -33 1 -42 -21 -59 l-27 -20 24 -20 c18 -16 22
-27 18 -49 -13 -62 52 -66 109 -6 17 19 43 37 56 40 22 6 25 2 35 -47 11 -54
8 -78 -9 -78 -5 0 -7 9 -3 20 9 29 -5 90 -21 90 -8 0 -32 -18 -54 -40 -22 -22
-51 -42 -65 -46 -35 -9 -65 19 -65 61 0 18 -7 38 -15 45 -8 7 -15 22 -15 33 0
20 0 20 -21 1 -11 -10 -35 -27 -53 -39 -18 -11 -55 -35 -81 -52 -27 -18 -58
-33 -69 -32 -16 0 -12 5 14 16 19 8 53 28 75 44 22 16 59 43 83 60 69 48 39
55 -43 10 l-73 -40 -4 40 c-3 38 -2 40 32 49 19 5 55 12 80 16 81 12 74 21
-19 26 -51 3 -94 8 -97 10 -2 3 -7 28 -11 56 -9 78 -13 81 -77 50 -53 -26 -55
-29 -46 -53 14 -37 13 -38 -17 -32 -28 5 -95 -22 -109 -44 -13 -21 28 -39 88
-39 32 0 58 -1 59 -2 0 -2 4 -40 7 -84 5 -59 4 -80 -4 -77 -6 2 -9 18 -7 36 2
18 1 51 -2 75 l-6 42 -57 0 c-60 0 -102 19 -102 45 0 19 97 68 121 62 15 -4
17 0 13 22 -5 24 0 31 43 58 58 38 80 40 93 11z m6857 -32 c7 -22 11 -42 8
-44 -8 -8 -287 -25 -610 -38 -82 -3 -177 -7 -210 -8 -33 -2 -86 -3 -117 -4
-42 -2 -58 -6 -58 -16 0 -11 20 -13 108 -10 168 5 281 11 362 18 92 7 417 28
482 30 46 2 48 1 53 -29 4 -30 25 -341 25 -382 0 -17 -9 -23 -47 -32 -53 -11
-247 -26 -507 -40 -180 -10 -186 -12 -186 -64 l0 -28 73 6 c39 3 155 10 257
16 102 6 235 16 295 23 120 14 125 12 125 -40 0 -31 -2 -32 -62 -44 -35 -6
-99 -27 -143 -45 -88 -36 -183 -58 -350 -79 -152 -20 -257 -24 -1000 -41 -357
-8 -846 -20 -1085 -25 -1143 -27 -3269 -38 -3710 -20 -241 9 -358 29 -524 87
-130 45 -194 78 -325 168 -60 40 -132 82 -161 92 l-52 18 6 69 c8 83 11 89 44
81 15 -3 41 -7 57 -9 17 -2 41 -7 55 -10 32 -8 355 -57 396 -61 17 -1 35 -5
40 -8 11 -6 174 -22 189 -18 5 1 36 -2 70 -8 61 -12 219 -22 380 -26 210 -5
272 -6 498 -4 226 2 237 3 237 21 0 17 -5 18 -43 13 -69 -11 -638 -7 -797 4
-80 6 -185 13 -234 16 -49 2 -97 7 -106 10 -9 3 -43 7 -76 10 -140 11 -185 16
-290 30 -153 21 -384 62 -392 70 -3 3 -1 14 5 23 14 23 55 21 363 -16 440 -53
504 -57 1000 -57 625 0 792 4 1150 25 469 29 590 43 1180 140 391 64 690 108
870 130 52 6 128 16 169 21 40 5 198 16 350 24 152 8 341 19 421 25 80 5 219
14 310 20 91 5 239 15 330 21 381 25 680 36 914 35 l249 -1 14 -39z m-5307
-51 c7 -14 14 -58 14 -100 1 -41 2 -75 3 -75 1 0 13 4 27 10 17 6 24 15 20 24
-6 16 53 51 100 60 35 6 76 -37 76 -78 0 -46 -53 -96 -102 -96 -41 0 -149 -32
-185 -56 -31 -20 -89 -18 -97 2 -4 9 -1 54 5 100 9 71 8 87 -6 117 -26 56 -18
78 40 98 70 24 89 23 105 -6z m1027 -33 c11 -13 9 -20 -7 -37 -31 -33 -26 -55
14 -55 33 0 34 -1 49 -60 8 -33 11 -60 7 -60 -4 0 -12 25 -19 55 -12 54 -13
55 -47 55 -19 0 -34 4 -34 10 0 5 -27 -5 -60 -23 -33 -17 -60 -37 -60 -44 0
-20 -89 -75 -123 -77 -26 -1 -33 3 -35 22 -3 20 -8 22 -72 22 -56 0 -84 -7
-164 -40 -53 -22 -106 -40 -118 -40 -18 1 -15 4 12 14 19 7 69 28 110 46 62
27 89 32 157 33 79 2 83 1 83 -20 0 -12 5 -25 10 -28 15 -9 117 52 123 74 3
11 29 31 61 46 31 15 61 35 66 46 13 24 7 24 -65 -1 -32 -11 -59 -19 -61 -18
-1 2 -8 19 -16 38 l-15 35 76 16 c83 17 109 16 128 -9z m273 -114 c-44 -39
-115 -83 -153 -93 -12 -3 5 10 37 29 84 49 146 103 147 129 2 20 2 19 6 -3 4
-20 -4 -33 -37 -62z m-1742 -35 c5 -18 -10 -16 -34 2 -18 15 -18 15 5 13 14
-2 26 -9 29 -15z m5222 -723 c0 -47 -3 -60 -15 -60 -12 0 -15 13 -15 60 0 47
3 60 15 60 12 0 15 -13 15 -60z m-250 -10 c0 -47 -3 -60 -15 -60 -12 0 -15 13
-15 60 0 47 3 60 15 60 12 0 15 -13 15 -60z m120 0 c0 -47 -3 -60 -15 -60 -12
0 -15 13 -15 60 0 47 3 60 15 60 12 0 15 -13 15 -60z m-260 -10 c0 -47 -3 -60
-15 -60 -12 0 -15 13 -15 60 0 47 3 60 15 60 12 0 15 -13 15 -60z m-410 -10
c0 -47 -3 -60 -15 -60 -12 0 -15 13 -15 60 0 47 3 60 15 60 12 0 15 -13 15
-60z m140 5 c0 -42 -3 -55 -15 -55 -12 0 -15 13 -15 55 0 42 3 55 15 55 12 0
15 -13 15 -55z m130 0 c0 -42 -3 -55 -15 -55 -12 0 -15 13 -15 55 0 42 3 55
15 55 12 0 15 -13 15 -55z m-540 -16 c0 -81 -24 -77 -28 4 -2 46 0 57 13 57
12 0 15 -13 15 -61z m130 6 c0 -42 -3 -55 -15 -55 -12 0 -15 13 -15 55 0 42 3
55 15 55 12 0 15 -13 15 -55z m-700 -10 c0 -42 -3 -55 -15 -55 -12 0 -15 13
-15 55 0 42 3 55 15 55 12 0 15 -13 15 -55z m150 0 c0 -42 -3 -55 -15 -55 -12
0 -15 13 -15 55 0 42 3 55 15 55 12 0 15 -13 15 -55z m130 0 c0 -42 -3 -55
-15 -55 -12 0 -15 13 -15 55 0 42 3 55 15 55 12 0 15 -13 15 -55z m140 0 c0
-42 -3 -55 -15 -55 -12 0 -15 13 -15 55 0 42 3 55 15 55 12 0 15 -13 15 -55z
m-4820 -10 c0 -42 -3 -55 -15 -55 -12 0 -15 13 -15 55 0 42 3 55 15 55 12 0
15 -13 15 -55z m3850 0 c0 -42 -3 -55 -15 -55 -12 0 -15 13 -15 55 0 42 3 55
15 55 12 0 15 -13 15 -55z m140 0 c0 -42 -3 -55 -15 -55 -12 0 -15 13 -15 55
0 42 3 55 15 55 12 0 15 -13 15 -55z m130 0 c0 -42 -3 -55 -15 -55 -12 0 -15
13 -15 55 0 42 3 55 15 55 12 0 15 -13 15 -55z m140 -1 c0 -73 -24 -70 -28 4
-2 42 0 52 12 52 13 0 16 -12 16 -56z m-4140 -9 c0 -42 -3 -55 -15 -55 -12 0
-15 13 -15 55 0 42 3 55 15 55 12 0 15 -13 15 -55z m3040 0 c0 -42 -3 -55 -15
-55 -12 0 -15 13 -15 55 0 42 3 55 15 55 12 0 15 -13 15 -55z m140 0 c0 -42
-3 -55 -15 -55 -12 0 -15 13 -15 55 0 42 3 55 15 55 12 0 15 -13 15 -55z m140
0 c0 -42 -3 -55 -15 -55 -12 0 -15 13 -15 55 0 42 3 55 15 55 12 0 15 -13 15
-55z m130 -1 c0 -73 -24 -70 -28 4 -2 42 0 52 12 52 13 0 16 -12 16 -56z m140
6 c0 -38 -4 -50 -15 -50 -11 0 -15 12 -15 50 0 38 4 50 15 50 11 0 15 -12 15
-50z m-3480 -15 c0 -42 -3 -55 -15 -55 -12 0 -15 13 -15 55 0 42 3 55 15 55
12 0 15 -13 15 -55z m120 -6 c0 -81 -24 -77 -28 4 -2 46 0 57 13 57 12 0 15
-13 15 -61z m1430 -5 c0 -48 -3 -65 -12 -62 -8 3 -14 28 -16 66 -2 51 0 62 13
62 12 0 15 -13 15 -66z m130 0 c0 -48 -3 -65 -12 -62 -8 3 -14 28 -16 66 -2
51 0 62 13 62 12 0 15 -13 15 -66z m140 6 c0 -47 -3 -60 -15 -60 -12 0 -15 13
-15 60 0 47 3 60 15 60 12 0 15 -13 15 -60z m140 0 c0 -47 -3 -60 -15 -60 -12
0 -15 13 -15 60 0 47 3 60 15 60 12 0 15 -13 15 -60z m140 0 c0 -47 -3 -60
-15 -60 -12 0 -15 13 -15 60 0 47 3 60 15 60 12 0 15 -13 15 -60z m140 -1 c0
-81 -24 -77 -28 4 -2 46 0 57 13 57 12 0 15 -13 15 -61z m140 6 c0 -42 -3 -55
-15 -55 -12 0 -15 13 -15 55 0 42 3 55 15 55 12 0 15 -13 15 -55z m140 0 c0
-42 -3 -55 -15 -55 -12 0 -15 13 -15 55 0 42 3 55 15 55 12 0 15 -13 15 -55z
m140 0 c0 -42 -3 -55 -15 -55 -12 0 -15 13 -15 55 0 42 3 55 15 55 12 0 15
-13 15 -55z m140 -1 c0 -73 -24 -70 -28 4 -2 42 0 52 12 52 13 0 16 -12 16
-56z m-2570 -9 c0 -42 -3 -55 -15 -55 -12 0 -15 13 -15 55 0 42 3 55 15 55 12
0 15 -13 15 -55z m630 -5 c0 -47 -3 -60 -15 -60 -12 0 -15 13 -15 60 0 47 3
60 15 60 12 0 15 -13 15 -60z m150 0 c0 -47 -3 -60 -15 -60 -12 0 -15 13 -15
60 0 47 3 60 15 60 12 0 15 -13 15 -60z m130 0 c0 -47 -3 -60 -15 -60 -12 0
-15 13 -15 60 0 47 3 60 15 60 12 0 15 -13 15 -60z m120 0 c0 -47 -3 -60 -15
-60 -12 0 -15 13 -15 60 0 47 3 60 15 60 12 0 15 -13 15 -60z m150 0 c0 -47
-3 -60 -15 -60 -12 0 -15 13 -15 60 0 47 3 60 15 60 12 0 15 -13 15 -60z
m-1060 -6 c0 -73 -24 -70 -28 4 -2 42 0 52 12 52 13 0 16 -12 16 -56z m130 1
c0 -42 -3 -55 -15 -55 -12 0 -15 13 -15 55 0 42 3 55 15 55 12 0 15 -13 15
-55z m130 0 c0 -42 -3 -55 -15 -55 -12 0 -15 13 -15 55 0 42 3 55 15 55 12 0
15 -13 15 -55z m120 0 c0 -42 -3 -55 -15 -55 -12 0 -15 13 -15 55 0 42 3 55
15 55 12 0 15 -13 15 -55z"/>
<path d="M5202 5728 c2 -6 17 -18 34 -27 74 -40 234 -168 234 -188 0 -3 8 -17
18 -31 10 -15 24 -46 31 -70 6 -23 16 -40 21 -37 5 3 5 18 1 33 -19 64 -42
100 -97 158 -60 62 -164 143 -164 127 0 -4 -4 -3 -8 3 -9 14 -54 44 -65 44 -5
0 -7 -5 -5 -12z"/>
<path d="M5348 5218 c-34 -11 -58 -26 -58 -34 0 -11 5 -11 28 -2 15 7 31 15
37 20 5 4 17 8 26 8 16 0 36 17 28 24 -2 2 -30 -5 -61 -16z"/>
<path d="M5230 5160 c-14 -10 -22 -21 -19 -25 7 -7 69 27 69 38 0 13 -24 7
-50 -13z"/>
<path d="M5091 5071 c-13 -10 -22 -24 -20 -30 5 -14 59 23 59 40 0 14 -12 11
-39 -10z"/>
<path d="M5026 5011 c-16 -17 -27 -33 -24 -36 9 -9 61 40 57 54 -3 7 -15 1
-33 -18z"/>
<path d="M4495 4710 c-10 -11 -16 -23 -12 -26 6 -7 56 27 57 39 0 14 -27 7
-45 -13z"/>
<path d="M4440 4655 c-12 -13 -20 -29 -18 -35 2 -6 16 2 31 18 16 17 24 32 19
36 -5 3 -19 -5 -32 -19z"/>
<path d="M4283 4506 c-61 -40 -75 -57 -50 -55 17 0 120 72 125 87 6 19 -8 13
-75 -32z"/>
<path d="M4168 4447 c-31 -12 -37 -27 -12 -27 21 0 54 18 54 30 0 12 -6 11
-42 -3z"/>
<path d="M4075 4416 c-16 -8 -45 -19 -62 -26 -18 -7 -33 -16 -33 -21 0 -5 -6
-9 -14 -9 -8 0 -27 -11 -43 -24 -15 -12 -33 -25 -39 -27 -6 -2 -24 -14 -40
-27 -16 -12 -54 -41 -84 -65 -31 -23 -62 -48 -70 -54 -46 -39 -79 -61 -107
-72 -31 -13 -45 -31 -23 -31 16 0 60 23 60 32 0 4 6 8 13 8 13 0 57 33 109 83
16 15 33 27 37 27 5 0 20 11 35 25 15 14 30 25 34 25 4 0 19 11 34 25 15 14
29 25 31 25 3 0 30 16 62 35 32 19 79 42 106 50 27 9 49 21 49 26 0 13 -20 11
-55 -5z"/>
<path d="M3475 4040 c-33 -16 -66 -29 -72 -29 -16 -1 -17 -21 -2 -21 5 0 35
11 65 25 30 14 59 25 64 25 6 0 10 7 10 15 0 8 -1 15 -2 14 -2 0 -30 -13 -63
-29z"/>
<path d="M3343 3985 c-34 -14 -48 -43 -15 -30 9 4 25 10 35 12 9 3 17 12 17
19 0 17 3 17 -37 -1z"/>
<path d="M3253 3950 c-19 -8 -33 -30 -19 -30 15 0 66 24 66 31 0 11 -18 11
-47 -1z"/>
<path d="M3173 3918 c-23 -11 -31 -28 -13 -28 16 0 60 23 60 32 0 11 -20 9
-47 -4z"/>
<path d="M3060 3853 c-30 -20 -56 -40 -58 -45 -2 -4 -9 -8 -15 -8 -7 0 -23 -9
-37 -20 -14 -11 -35 -20 -48 -20 -24 0 -59 -26 -49 -37 8 -8 114 37 137 59 10
10 23 18 28 18 5 0 21 11 36 25 14 13 26 22 26 19 0 -3 14 3 30 13 31 18 39
34 18 32 -7 0 -38 -17 -68 -36z"/>
<path d="M2819 3812 c13 -24 40 -46 47 -39 9 8 -29 56 -44 57 -9 0 -10 -5 -3
-18z"/>
<path d="M2793 3708 c-23 -11 -31 -28 -13 -28 16 0 60 23 60 32 0 11 -20 9
-47 -4z"/>
<path d="M7410 4588 c0 -7 14 -22 30 -31 17 -10 30 -15 30 -11 0 4 6 0 13 -9
13 -18 67 -34 67 -21 0 5 -17 17 -38 26 -20 9 -52 26 -69 38 -24 16 -33 18
-33 8z"/>
<path d="M5804 3506 c-3 -8 -4 -25 -2 -38 2 -19 9 -23 38 -23 33 0 35 2 35 35
0 32 -3 35 -33 38 -21 2 -34 -2 -38 -12z m52 -17 c10 -17 -13 -36 -27 -22 -12
12 -4 33 11 33 5 0 12 -5 16 -11z"/>
<path d="M4674 3316 c-3 -8 -4 -25 -2 -38 2 -19 9 -23 38 -23 33 0 35 2 35 35
0 32 -3 35 -33 38 -21 2 -34 -2 -38 -12z m52 -17 c10 -17 -13 -36 -27 -22 -12
12 -4 33 11 33 5 0 12 -5 16 -11z"/>
<path d="M6856 4185 c-3 -9 -6 -24 -5 -33 0 -9 5 -4 10 12 9 32 6 48 -5 21z"/>
<path d="M6731 4153 c7 -12 15 -20 18 -17 3 2 -3 12 -13 22 -17 16 -18 16 -5
-5z"/>
<path d="M6706 4125 c4 -8 11 -15 16 -15 6 0 5 6 -2 15 -7 8 -14 15 -16 15 -2
0 -1 -7 2 -15z"/>
<path d="M6600 4095 c-7 -9 -8 -15 -2 -15 5 0 12 7 16 15 3 8 4 15 2 15 -2 0
-9 -7 -16 -15z"/>
<path d="M6615 3950 c3 -5 12 -7 20 -3 21 7 19 13 -6 13 -11 0 -18 -4 -14 -10z"/>
<path d="M6650 3865 c0 -5 5 -17 10 -25 5 -8 10 -10 10 -5 0 6 -5 17 -10 25
-5 8 -10 11 -10 5z"/>
<path d="M6520 3646 c0 -2 7 -6 15 -10 8 -3 15 -1 15 4 0 6 -7 10 -15 10 -8 0
-15 -2 -15 -4z"/>
<path d="M6454 3583 c-9 -16 -25 -33 -33 -40 -9 -6 -13 -15 -8 -19 4 -4 7 -2
7 4 0 7 6 12 13 12 6 0 20 16 29 35 21 42 17 46 -8 8z"/>
<path d="M6475 3570 c-3 -6 1 -7 9 -4 18 7 21 14 7 14 -6 0 -13 -4 -16 -10z"/>
<path d="M6435 3510 c-3 -5 -1 -10 4 -10 6 0 11 5 11 10 0 6 -2 10 -4 10 -3 0
-8 -4 -11 -10z"/>
<path d="M6395 3280 c-3 -6 1 -7 9 -4 18 7 21 14 7 14 -6 0 -13 -4 -16 -10z"/>
<path d="M7200 3445 c0 -8 5 -15 10 -15 6 0 10 7 10 15 0 8 -4 15 -10 15 -5 0
-10 -7 -10 -15z"/>
<path d="M7196 3278 c3 -5 10 -6 15 -3 13 9 11 12 -6 12 -8 0 -12 -4 -9 -9z"/>
<path d="M2498 3636 c-10 -7 -18 -18 -18 -25 0 -16 25 -14 40 4 18 22 0 37
-22 21z"/>
<path d="M2920 3630 c-14 -26 -3 -45 16 -29 16 13 19 49 4 49 -5 0 -14 -9 -20
-20z"/>
<path d="M2303 3563 c-15 -5 -18 -33 -4 -33 21 0 41 13 41 26 0 14 -14 17 -37
7z"/>
<path d="M2620 3549 c-7 -11 -9 -24 -5 -27 9 -9 40 13 43 32 5 23 -25 20 -38
-5z"/>
<path d="M2103 3513 c-15 -5 -18 -33 -4 -33 21 0 41 13 41 26 0 14 -14 17 -37
7z"/>
<path d="M1645 3500 c3 -5 19 -10 36 -10 16 0 29 5 29 10 0 6 -16 10 -36 10
-21 0 -33 -4 -29 -10z"/>
<path d="M2790 3480 c-17 -32 5 -53 26 -25 8 10 13 24 11 29 -6 19 -26 17 -37
-4z"/>
<path d="M2463 3473 c-15 -5 -18 -33 -4 -33 21 0 41 13 41 26 0 14 -14 17 -37
7z"/>
<path d="M1865 3450 c3 -5 19 -10 36 -10 16 0 29 5 29 10 0 6 -16 10 -36 10
-21 0 -33 -4 -29 -10z"/>
<path d="M2263 3413 c-15 -5 -18 -33 -4 -33 21 0 41 13 41 26 0 14 -14 17 -37
7z"/>
<path d="M3324 3285 c-23 -23 -31 -25 -70 -19 -35 5 -45 3 -50 -10 -4 -9 1
-25 10 -35 9 -10 16 -25 16 -35 0 -9 8 -19 18 -22 9 -3 27 -11 39 -16 30 -15
76 14 71 45 -2 15 6 28 27 42 l30 20 -26 3 c-20 2 -26 8 -22 21 8 31 -15 34
-43 6z"/>
<path d="M4141 3071 c-24 -9 -46 -22 -49 -29 -6 -19 15 -14 71 18 57 33 47 37
-22 11z"/>
<path d="M2073 3042 c-9 -61 -9 -62 13 -62 33 0 36 11 16 71 l-19 53 -10 -62z"/>
<path d="M2410 3080 c-10 -18 -8 -18 21 -8 23 8 27 13 17 19 -20 13 -26 11
-38 -11z"/>
<path d="M7139 3116 c-2 -2 -60 -7 -129 -10 -345 -17 -489 -23 -525 -23 -65 1
-185 -15 -185 -24 0 -9 198 -11 213 -2 10 6 136 12 342 17 72 2 130 4 130 5 0
0 51 2 112 4 100 3 136 9 122 21 -7 6 -75 16 -80 12z"/>
<path d="M6257 3074 c-3 -4 -39 -8 -79 -10 -40 -2 -127 -6 -193 -9 -66 -3
-127 -8 -135 -11 -8 -4 -28 -8 -45 -9 -16 -2 -68 -7 -115 -11 -47 -5 -96 -7
-109 -5 -13 1 -45 -2 -70 -8 -25 -6 -86 -13 -136 -16 -49 -3 -117 -10 -150
-15 -70 -12 -109 -17 -222 -32 -61 -7 -83 -14 -83 -24 0 -12 13 -14 73 -8 39
3 80 10 90 16 10 5 37 9 60 9 46 0 193 17 217 26 15 5 54 9 165 18 33 2 69 6
80 8 27 6 150 17 205 18 25 1 83 5 130 10 83 9 205 16 303 18 40 1 48 4 45 18
-3 18 -20 27 -31 17z"/>
<path d="M4879 2926 c-2 -2 -39 -7 -83 -10 -43 -4 -85 -10 -95 -15 -9 -5 -43
-11 -76 -14 -85 -8 -148 -18 -160 -27 -5 -4 -56 -13 -112 -20 -97 -12 -134
-23 -122 -34 3 -3 50 2 104 10 55 8 124 17 153 20 29 2 80 11 112 19 32 8 87
18 121 20 34 3 66 8 71 12 6 3 33 8 61 12 28 3 52 12 55 19 3 11 -19 18 -29 8z"/>
<path d="M4199 2826 c-5 -5 -170 -26 -244 -32 -84 -6 -185 -25 -185 -35 0 -8
127 -4 186 7 17 3 58 8 90 10 33 2 70 5 84 7 14 2 40 5 58 5 20 1 32 7 32 16
0 15 -14 29 -21 22z"/>
<path d="M7057 2667 c-37 -79 -67 -149 -67 -155 0 -7 14 -12 33 -12 28 0 36 5
50 35 9 19 21 35 27 35 5 0 10 -16 10 -35 0 -33 2 -35 35 -35 28 0 35 4 39 23
8 40 26 215 26 251 0 36 0 36 -43 36 l-44 0 -66 -143z"/>
<path d="M7261 2742 c-11 -37 -29 -99 -40 -138 -28 -96 -28 -104 9 -104 22 0
33 6 40 23 l9 22 0 -23 c1 -20 5 -23 33 -20 30 3 34 7 48 56 8 28 18 52 23 52
4 0 6 -24 5 -52 l-3 -53 38 -3 37 -3 0 60 c0 47 5 68 24 96 34 50 43 111 21
136 -16 16 -31 19 -121 18 l-104 0 -19 -67z m179 -15 c0 -18 -27 -53 -35 -46
-10 11 6 59 21 59 8 0 14 -6 14 -13z m-143 -139 c-3 -8 -6 -5 -6 6 -1 11 2 17
5 13 3 -3 4 -12 1 -19z"/>
<path d="M3575 2759 c-22 -4 -91 -8 -152 -8 -62 -1 -113 -4 -113 -8 0 -5 -46
-7 -102 -6 -57 2 -110 0 -118 -3 -8 -3 -67 -7 -130 -8 -94 -1 -115 -4 -115
-16 0 -12 15 -14 85 -11 47 1 134 5 195 7 60 2 130 5 155 5 25 1 86 5 135 10
50 5 143 11 208 14 118 5 137 8 137 24 0 11 -130 10 -185 0z"/>
<path d="M2813 3161 c-58 -17 -63 -28 -37 -81 14 -28 15 -46 8 -115 -5 -44 -8
-89 -6 -98 5 -23 34 -21 84 4 65 33 159 61 184 55 30 -8 94 46 94 78 0 27 -39
66 -66 66 -29 0 -84 -38 -84 -58 0 -15 -46 -42 -72 -42 -3 0 -6 38 -6 84 -1
82 -14 127 -37 125 -5 -1 -34 -9 -62 -18z"/>
<path d="M3855 3135 c-5 -2 -31 -6 -56 -10 -40 -5 -46 -9 -42 -26 8 -29 19
-32 71 -15 26 8 58 16 72 18 36 4 32 33 -5 35 -16 1 -34 0 -40 -2z"/>
</g>
</svg>
